<?xml version="1.0" encoding="UTF-8"?>
<svg version="1.1" xmlns="http://www.w3.org/2000/svg" width="1376" height="1315">
<path d="M0 0 C1.26151382 -0.01142029 2.52302765 -0.02284058 3.82276917 -0.03460693 C5.21337851 -0.03709737 6.6039883 -0.03934762 7.99459839 -0.04138184 C9.46515904 -0.05064492 10.93571492 -0.06069515 12.40626526 -0.07147217 C16.39624817 -0.09766473 20.38616385 -0.11059981 24.37621927 -0.11949348 C26.87273841 -0.12536556 29.36923939 -0.13357728 31.86574936 -0.14250183 C39.68738215 -0.16984073 47.5089732 -0.18917788 55.33065045 -0.19690561 C64.33955553 -0.20585667 73.34785213 -0.24090857 82.35657227 -0.2989068 C89.33259592 -0.34224863 96.3084491 -0.36231998 103.28460586 -0.36498785 C107.44511395 -0.3670768 111.60504967 -0.37873603 115.76541519 -0.41462708 C119.68420149 -0.44777666 123.60199108 -0.4518113 127.5208683 -0.43434906 C128.95145541 -0.43281804 130.38209818 -0.44136493 131.81254768 -0.46126556 C141.42415276 -0.58703708 147.73253538 0.94632563 155.74020386 6.28088379 C156.82059937 6.87739746 157.90099487 7.47391113 159.01412964 8.08850098 C169.78551259 14.09338454 180.55003824 20.1005296 191.1569519 26.39245605 C197.46855556 30.13436218 203.82012651 33.8052105 210.17770386 37.46838379 C211.28492798 38.10638916 212.3921521 38.74439453 213.53292847 39.4017334 C215.80357453 40.70977855 218.07432744 42.01763827 220.34518433 43.32531738 C225.8119037 46.47420435 231.27592515 49.62776415 236.74020386 52.78088379 C238.90947203 54.03219049 241.07874286 55.28349257 243.24801636 56.53479004 C247.55622037 59.02019281 251.86343175 61.50730356 256.16989136 63.99572754 C257.23377075 64.61012695 258.29765015 65.22452637 259.39376831 65.85754395 C261.53083767 67.0920072 263.66739913 68.32735016 265.80343628 69.56359863 C271.01032342 72.57244317 276.22648791 75.56259557 281.46975708 78.50752258 C284.04267106 79.9527223 286.61247947 81.40340432 289.18240356 82.85391235 C290.41486612 83.54712478 291.64900506 84.2373664 292.88491821 84.92440796 C294.60773208 85.88220516 296.32448042 86.85088759 298.04098511 87.81994629 C299.0223645 88.36860352 300.0037439 88.91726074 301.01486206 89.48254395 C305.03950896 92.13824126 308.19332045 94.64023357 309.74020386 99.28088379 C309.83757261 101.20805546 309.87518611 103.13844734 309.88064575 105.06806946 C309.8863559 106.27516068 309.89206604 107.48225189 309.89794922 108.72592163 C309.89919456 110.06561269 309.90031966 111.40530387 309.90133667 112.74499512 C309.90596548 114.15440501 309.91099022 115.56381365 309.91638184 116.97322083 C309.92950209 120.80390191 309.9359501 124.63456547 309.94039249 128.46526551 C309.94332391 130.8588772 309.94742886 133.25248409 309.95189667 135.64609337 C309.96557081 143.13614912 309.97523779 150.62619393 309.97909856 158.1162613 C309.98357882 166.76054755 310.00112551 175.40467563 310.03009915 184.04891378 C310.05172076 190.73181857 310.0618031 197.41467888 310.06313968 204.09761828 C310.06418739 208.08846948 310.07008799 212.07917199 310.08795929 216.06998634 C310.10444825 219.82517323 310.10659159 223.58009978 310.09782028 227.33530998 C310.09705033 228.71153587 310.1013871 230.08777581 310.11127853 231.46396637 C310.12401529 233.34685061 310.11632324 235.22983963 310.10769653 237.11274719 C310.10916309 238.1652255 310.11062965 239.2177038 310.11214066 240.30207539 C309.55616329 244.75484819 308.00598464 248.13017399 304.67770386 251.15588379 C299.25330592 253.23331279 294.21031738 253.27039696 288.7819519 251.0958252 C285.49150562 249.38267581 282.30304613 247.55315032 279.11520386 245.65588379 C277.92284979 244.96706893 276.72938682 244.28017043 275.53488159 243.59509277 C272.49850705 241.84699276 269.47722966 240.07452039 266.45999146 238.29364014 C263.85606118 236.76022583 261.24127412 235.24566242 258.62692261 233.73010254 C254.72344706 231.46341083 250.82745103 229.18451462 246.93551636 226.89807129 C240.6557797 223.21810899 234.33505161 219.61227319 228.00946045 216.01199341 C223.93386957 213.69000048 219.86461723 211.35691315 215.79440308 209.0255127 C213.12630588 207.50143416 210.45166716 205.98968514 207.77536011 204.48010254 C206.42972924 203.70636867 205.08461442 202.93173608 203.74020386 202.15588379 C202.64707886 201.53455566 201.55395386 200.91322754 200.42770386 200.27307129 C196.73610917 197.53656941 194.12812803 194.74633571 193.38867188 190.04672241 C193.26500975 187.37756938 193.26528072 184.73381762 193.30661011 182.06213379 C193.29700655 180.05822676 193.28723584 178.05432052 193.27731323 176.05041504 C193.28591727 172.91018796 193.30277944 169.77016501 193.32492065 166.63000488 C193.33945609 163.58614238 193.32418076 160.54345473 193.30661011 157.49963379 C193.32309097 156.56510376 193.33957184 155.63057373 193.35655212 154.66772461 C193.32435707 150.45409699 193.23454845 147.29035204 190.59176636 143.88220215 C187.69711725 141.24157833 184.97121687 139.34118205 181.54879761 137.44104004 C180.66986595 136.94597206 180.66986595 136.94597206 179.7731781 136.44090271 C177.91415189 135.39693616 176.04647276 134.3697882 174.17770386 133.34338379 C172.95245927 132.66027708 171.72784458 131.97603931 170.50387573 131.29064941 C168.68910038 130.27481803 166.87365967 129.2603936 165.05474854 128.25198364 C160.03264823 125.46552081 155.08451416 122.56657597 150.15060425 119.62634277 C145.63182968 117.10401251 141.5704306 117.1052908 136.52926636 117.07775879 C135.72411591 117.07205872 134.91896545 117.06635864 134.0894165 117.06048584 C132.38643708 117.05104443 130.68343946 117.04450527 128.98043823 117.04064941 C126.38180513 117.03094578 123.78396383 116.99991595 121.18551636 116.96838379 C119.52927104 116.96185312 117.87302009 116.9566029 116.21676636 116.95275879 C115.44265411 116.94041199 114.66854187 116.92806519 113.87097168 116.91534424 C109.30296634 116.93410557 106.29288276 117.33036748 102.74020386 120.28088379 C99.22512353 124.77321871 99.31661475 128.66681518 99.36268044 134.12533474 C99.35832011 135.02076769 99.35395979 135.91620064 99.34946734 136.83876792 C99.33847364 139.85489861 99.34895238 142.87057574 99.35925293 145.88670349 C99.355798 148.06463959 99.35103454 150.24257395 99.3450712 152.42050463 C99.33250892 158.41770248 99.33875535 164.41475772 99.34802985 170.41195619 C99.35479867 176.87490279 99.34434987 183.33782432 99.33609009 189.80076599 C99.32291597 201.73423692 99.32462076 213.66766254 99.33282449 225.60113615 C99.34036608 236.62534182 99.34234364 247.64953076 99.33875656 258.67373848 C99.33841283 259.76990346 99.33841283 259.76990346 99.33806215 260.88821319 C99.33712816 263.85455736 99.33617296 266.82090152 99.33518286 269.78724568 C99.32600198 297.62467945 99.33433221 325.46208414 99.35047355 353.29951343 C99.3647093 378.03868045 99.36343818 402.77780115 99.34909058 427.51696777 C99.33303076 455.30142047 99.32665454 483.08584747 99.33592737 510.87030417 C99.33688954 513.83160722 99.33782806 516.79291027 99.33875656 519.75421333 C99.33899379 520.48337975 99.33923103 521.21254616 99.33947545 521.96380853 C99.3428897 532.98117356 99.33889359 543.99852003 99.3313179 555.01588249 C99.32274759 567.5423064 99.32515792 580.06867376 99.34116013 592.59509128 C99.34905907 598.98966734 99.35210681 605.38414925 99.34221268 611.77872467 C99.33329884 617.62809203 99.33814395 623.47727762 99.35414533 629.32662839 C99.35750722 631.44702744 99.35576768 633.56744172 99.34851797 635.68783104 C99.33944098 638.56230523 99.34870599 641.43615072 99.36268044 644.3105917 C99.35565694 645.14049477 99.34863344 645.97039784 99.34139711 646.8254495 C99.39717649 652.53700616 100.43954033 656.79485223 104.45202637 661.13063049 C107.70705819 662.76691574 110.78842992 662.70736989 114.3510437 662.68493652 C115.11252213 662.69179977 115.87400055 662.69866302 116.65855408 662.70573425 C119.17294017 662.72401805 121.68670311 662.72016208 124.20114136 662.71447754 C125.95225223 662.71903918 127.7033613 662.72434471 129.45446777 662.73036194 C133.12465689 662.73929657 136.79462848 662.73686664 140.46481323 662.72692871 C145.16139326 662.71544911 149.8572203 662.73563292 154.5537014 662.76484585 C158.17062123 662.78322087 161.78736114 662.78291263 165.40431595 662.77720833 C167.13542358 662.77705522 168.86654349 662.78309127 170.59760666 662.7954998 C173.02240484 662.81042991 175.44581914 662.79971854 177.87057495 662.78259277 C178.93685371 662.79709473 178.93685371 662.79709473 180.02467346 662.81188965 C185.03517104 662.73803625 187.96234509 661.55371014 191.74020386 658.28088379 C193.92336744 654.13821809 193.99057891 650.51478513 193.99176025 645.87976074 C193.99473039 645.14397702 193.99770053 644.4081933 194.00076067 643.65011311 C194.00838673 641.18971739 194.00191248 638.72956138 193.99557495 636.26916504 C193.99832545 634.50316201 194.00200572 632.73716022 194.00654602 630.97116089 C194.01465358 627.17068815 194.01682762 623.37027424 194.01459885 619.5697937 C194.01176586 613.56108797 194.02611657 607.55249982 194.0435791 601.54382324 C194.09060944 584.45847329 194.11455267 567.37313153 194.12106323 550.28771973 C194.12481149 540.84971856 194.14282036 531.41185059 194.17615759 521.97390652 C194.19639484 515.999902 194.19873074 510.02624046 194.18787742 504.05221558 C194.18527314 500.33713133 194.1992601 496.62224748 194.21795845 492.90721512 C194.22328757 491.18388219 194.22177137 489.46051252 194.21292305 487.73719406 C194.20181923 485.38498445 194.2152115 483.03413328 194.23468018 480.68200684 C194.23576971 479.365728 194.23685925 478.04944916 194.2379818 476.69328308 C194.8215671 472.72805292 195.95293727 471.10116426 198.74020386 468.28088379 C202.89012686 465.60512165 206.9507861 465.5411545 211.74020386 466.28088379 C215.31300245 467.6298494 218.51612115 469.47274119 221.80270386 471.40588379 C222.75387085 471.94503418 223.70503784 472.48418457 224.68502808 473.03967285 C227.71599857 474.76585536 230.72916625 476.52019642 233.74020386 478.28088379 C235.66842077 479.39836209 237.59680454 480.51555253 239.52536011 481.63244629 C243.48498794 483.93269059 247.43653921 486.2462373 251.38473511 488.56604004 C257.64562824 492.23730281 263.941914 495.84428791 270.24719238 499.4385376 C272.03829081 500.46016273 273.82825492 501.48374746 275.6178894 502.50793457 C280.91815088 505.53973555 286.22498891 508.55755201 291.56051636 511.52697754 C292.87088867 512.26428101 292.87088867 512.26428101 294.20773315 513.01647949 C295.78965458 513.90633961 297.37665843 514.78726032 298.96994019 515.65661621 C299.66627563 516.05082764 300.36261108 516.44503906 301.08004761 516.85119629 C301.67164673 517.1787793 302.26324585 517.5063623 302.87277222 517.84387207 C306.33920535 520.5113352 309.26704228 523.0777221 310.20470822 527.44373524 C310.38207609 530.07656132 310.4017491 532.66918029 310.36839294 535.30787659 C310.37548733 536.31402919 310.38258172 537.32018179 310.38989109 538.35682386 C310.40748583 541.72651231 310.38935783 545.09504962 310.37130737 548.46472168 C310.37644556 550.88111395 310.38372606 553.29750247 310.39299011 555.71388245 C310.40959919 561.59435625 310.40286203 567.47452655 310.38490189 573.35497076 C310.37086954 578.13408047 310.36698443 582.91309998 310.37034416 587.69222832 C310.3708216 588.37271063 310.37129905 589.05319294 310.37179096 589.75429593 C310.3728173 591.13672009 310.37387265 592.51914423 310.37495672 593.90156835 C310.38352145 606.12157919 310.36685555 618.34142957 310.33712769 630.56140137 C310.30828443 642.41791523 310.30120999 654.27419797 310.31661987 666.1307373 C310.33338105 679.04464593 310.33741763 691.95844487 310.31990951 704.87235636 C310.31806514 706.2493559 310.31623041 707.62635546 310.31440544 709.00335503 C310.31349335 709.68085267 310.31258126 710.3583503 310.31164153 711.05637817 C310.30603609 715.83008029 310.30934332 720.60372884 310.31595039 725.37742805 C310.32448924 731.80183878 310.31152665 738.22599116 310.28410149 744.65035057 C310.27720404 747.01064183 310.27713415 749.37096417 310.28431702 751.73125458 C310.29298006 754.94816929 310.27710798 758.16404683 310.25486755 761.38087463 C310.2672287 762.78864917 310.2672287 762.78864917 310.27983958 764.22486359 C310.22719186 768.33829878 310.09730465 770.68101239 307.95803738 774.27463436 C304.20591094 777.66880324 301.44725279 778.53048651 296.40777016 778.54094601 C295.32017013 778.5480116 294.23257011 778.55507719 293.11201251 778.56235689 C291.91767167 778.55994181 290.72333083 778.55752672 289.49279785 778.55503845 C288.22362876 778.56027513 286.95445967 778.56551181 285.64683092 778.57090718 C282.12154135 778.58509978 278.5963399 778.58675023 275.07102585 778.58631027 C271.26997297 778.58795735 267.46895651 778.60102172 263.66792297 778.61250305 C255.35603912 778.63535952 247.04418078 778.64327416 238.73226976 778.6483295 C233.5434166 778.65158537 228.35457086 778.65810713 223.16572189 778.66533089 C208.80196941 778.68489664 194.43822384 778.70130133 180.07445717 778.70420742 C179.15517993 778.70439499 178.23590268 778.70458256 177.28876855 778.70477581 C175.42514157 778.70514207 173.56151459 778.70550576 171.69788761 778.70586693 C170.77276994 778.70604974 169.84765227 778.70623255 168.89450073 778.7064209 C167.96825541 778.70660145 167.04201008 778.706782 166.08769672 778.70696802 C151.07343237 778.71051097 136.05931134 778.73754097 121.04509671 778.77491879 C105.63382429 778.81297844 90.22262302 778.83236472 74.81130254 778.83266693 C66.15688176 778.83325199 57.50263199 778.84177491 48.84825516 778.8706646 C41.48022028 778.89514707 34.11241879 778.90248261 26.74435426 778.88741707 C22.98451761 778.88023552 19.22514211 778.88115844 15.46535683 778.90382767 C11.39042264 778.92816192 7.31654297 778.91381731 3.24157715 778.89561462 C2.05169776 778.90881459 0.86181836 778.92201456 -0.36411798 778.93561453 C-9.27762115 778.84435486 -9.27762115 778.84435486 -12.97863197 775.86746311 C-16.10363214 772.32407026 -16.38507087 770.76452548 -16.38974798 766.14701247 C-16.3932764 765.05035791 -16.39680482 763.95370335 -16.40044016 762.82381684 C-16.39924238 761.60667038 -16.3980446 760.38952392 -16.39681053 759.13549423 C-16.40078827 757.20238539 -16.40078827 757.20238539 -16.40484637 755.23022383 C-16.41210865 751.62512592 -16.41307563 748.02004877 -16.41306914 744.41494453 C-16.41413543 740.50339184 -16.42092208 736.59184851 -16.42697585 732.68030095 C-16.43806949 724.90967977 -16.44370455 717.13906312 -16.44768472 709.36843542 C-16.45268676 700.06602702 -16.46341311 690.76362743 -16.47416646 681.46122422 C-16.49981744 658.97448432 -16.51483547 636.48774099 -16.52767693 614.00099066 C-16.53192952 606.55547268 -16.53649519 599.10995496 -16.54126024 591.66443729 C-16.56651711 552.10261187 -16.58857211 512.54078604 -16.60098839 472.97895432 C-16.60390987 463.80957793 -16.60687736 454.64020155 -16.6098938 445.4708252 C-16.61026471 444.33161055 -16.61063562 443.1923959 -16.61101777 442.0186596 C-16.62317835 405.06706046 -16.65412996 368.11550891 -16.69581532 331.16393213 C-16.73856844 293.19680299 -16.76522497 255.22969898 -16.7704631 217.26254511 C-16.77120359 211.90407719 -16.77211429 206.5456093 -16.77312088 201.18714142 C-16.77331149 200.13249514 -16.77350211 199.07784886 -16.7736985 197.99124361 C-16.77721709 180.99330209 -16.797538 163.99542 -16.82391752 146.99750034 C-16.85001643 129.92342127 -16.85780898 112.84941113 -16.84681623 95.77531496 C-16.84082406 85.62291958 -16.84883144 75.47075741 -16.87664706 65.31839718 C-16.8938405 58.54351571 -16.89299984 51.76879408 -16.87727938 44.99390937 C-16.86883127 41.1292295 -16.86841217 37.26499606 -16.88989083 33.40035674 C-16.91281101 29.24310808 -16.89731771 25.08690349 -16.8778286 20.92963791 C-16.89067782 19.72185611 -16.90352704 18.51407432 -16.91676563 17.26969308 C-16.8231547 8.25559265 -16.8231547 8.25559265 -13.87249804 4.57517695 C-9.37732314 0.62782687 -5.89043258 0.03201456 0 0 Z " fill="#065F71" transform="translate(148.25979614257813,269.7191162109375)"/>
<path d="M0 0 C2.13979657 1.27482905 4.28045732 2.54820843 6.421875 3.8203125 C7.53755859 4.48579102 8.65324219 5.15126953 9.80273438 5.83691406 C14.98896032 8.91556801 20.23550473 11.8892198 25.47912598 14.86859131 C35.75042818 20.70589406 45.97690994 26.61615849 56.171875 32.5859375 C63.8357377 37.06666146 71.53678835 41.48006752 79.25 45.875 C87.94401686 50.82878823 96.61497229 55.81878369 105.25 60.875 C114.4350711 66.25224377 123.66038462 71.55635965 132.90625 76.828125 C141.36820754 81.65292535 149.81642932 86.50068639 158.25 91.375 C167.23540831 96.56740439 176.23636877 101.73181108 185.25 106.875 C194.26363197 112.01818934 203.26449917 117.18275492 212.25 122.375 C221.19554801 127.54331244 230.15397511 132.68856291 239.125 137.8125 C240.28556567 138.4757443 241.44612882 139.13899299 242.60668945 139.80224609 C248.06542304 142.92081385 253.52706217 146.03411295 258.99560547 149.13545227 C261.53379709 150.57540488 264.07058173 152.01782589 266.60723877 153.46047974 C267.80652725 154.14163096 269.00649553 154.82158697 270.20721436 155.50021362 C291.61175835 167.5985167 291.61175835 167.5985167 295.25 174.875 C295.34863837 176.89556831 295.38102355 178.91946711 295.38422108 180.94243908 C295.38867892 182.24489423 295.39313676 183.54734938 295.39772969 184.88927287 C295.39764039 186.34847908 295.39745052 187.80768529 295.39717102 189.26689148 C295.40046857 190.80630503 295.40419391 192.3457177 295.4083125 193.88512927 C295.4183531 198.13128619 295.4220526 202.37742896 295.42470181 206.62359607 C295.4285988 211.19702246 295.43817758 215.77043759 295.44691467 220.34385681 C295.46669676 231.39691418 295.47674773 242.44997249 295.48564246 253.50304314 C295.49002271 258.70478117 295.49539022 263.90651817 295.50063133 269.10825539 C295.51764574 286.39457202 295.53214049 303.680888 295.53938007 320.96721172 C295.54129005 325.45527332 295.54321037 329.94333491 295.54516602 334.43139648 C295.54564976 335.54691923 295.5461335 336.66244198 295.5466319 337.81176845 C295.5549343 355.88735199 295.58027383 373.96286939 295.61274669 392.03842404 C295.64579552 410.58541602 295.66382688 429.13237438 295.66702431 447.67939597 C295.66919149 458.09722067 295.67797032 468.51494894 295.70348549 478.93274498 C295.72516281 487.80420166 295.73325757 496.67553851 295.72351871 505.54701867 C295.71896531 510.07446419 295.72092041 514.6016623 295.74028015 519.1290741 C295.75785073 523.2738327 295.75696405 527.4181623 295.74138286 531.56292508 C295.73899746 533.06231216 295.74337852 534.56172848 295.75521151 536.06107076 C295.86187514 550.46879675 295.86187514 550.46879675 291.25 555.875 C285.86774081 560.02431027 279.45171865 559.29607997 272.95863342 559.26268005 C271.70887881 559.26806559 270.4591242 559.27345113 269.17149824 559.27899987 C265.70961202 559.29344986 262.24796397 559.28921126 258.78606474 559.28183305 C255.04978237 559.27710256 251.3135516 559.28961016 247.57728577 559.29985046 C240.2604413 559.31704603 232.94368268 559.31787693 225.62682325 559.31263756 C219.67974401 559.30859611 213.73269014 559.31003912 207.78561211 559.31538582 C206.93918557 559.31613424 206.09275903 559.31688266 205.2206832 559.31765376 C203.50117051 559.31918524 201.78165784 559.32072359 200.06214517 559.32226873 C183.93718376 559.33599646 167.81227087 559.33055412 151.68731057 559.31908352 C136.93575935 559.30915037 122.18433355 559.32209272 107.43280167 559.34601771 C92.28474863 559.37040066 77.13675401 559.38001859 61.98868173 559.37336498 C53.48464113 559.36987103 44.98069699 559.37211644 36.47667122 559.38961601 C29.23754971 559.40432792 21.9985926 559.40498671 14.75947434 559.3875451 C11.06640151 559.3790244 7.3736225 559.37691136 3.68056488 559.39219666 C-0.32374556 559.40856497 -4.32734522 559.39391595 -8.33164978 559.37620544 C-9.49779735 559.38581045 -10.66394492 559.39541546 -11.8654303 559.40531152 C-18.33745901 559.34628815 -22.62666857 558.9993441 -27.75 554.875 C-31.81534936 549.54915024 -31.16900947 543.39673113 -31.13095093 536.98777771 C-31.1356309 535.78153104 -31.14031087 534.57528438 -31.14513266 533.33248478 C-31.15501963 529.99205042 -31.15147329 526.65212296 -31.14217401 523.31171954 C-31.13538328 519.70636106 -31.1458648 516.10104672 -31.15411377 512.49569702 C-31.16745266 505.43619367 -31.16457281 498.37678601 -31.15587585 491.31727891 C-31.14910085 485.58042367 -31.14818178 479.84359524 -31.1514473 474.10673714 C-31.151907 473.29026213 -31.15236669 472.47378711 -31.15284032 471.63257043 C-31.1537995 469.97393329 -31.15477214 468.31529615 -31.1557581 466.65665901 C-31.16431231 451.10450266 -31.1544771 435.55239937 -31.138357 420.00025172 C-31.12495127 406.65354295 -31.12728394 393.30691244 -31.14111328 379.96020508 C-31.15716421 364.46217102 -31.16349098 348.96418345 -31.15427649 333.46614224 C-31.15332084 331.81391053 -31.15237773 330.16167882 -31.1514473 328.5094471 C-31.15098447 327.69650806 -31.15052164 326.88356901 -31.15004479 326.04599546 C-31.14745363 320.31500428 -31.15182857 314.58404257 -31.15888596 308.85305595 C-31.16729564 301.87044614 -31.16503196 294.8879375 -31.14904372 287.90533929 C-31.14115418 284.34217767 -31.13808096 280.77918481 -31.14799118 277.2160244 C-31.15856572 273.35566683 -31.14594762 269.49558623 -31.13095093 265.63523865 C-31.13764309 264.50606583 -31.14433526 263.376893 -31.15123022 262.21350282 C-31.13949535 260.66271771 -31.13949535 260.66271771 -31.12752342 259.0806036 C-31.12703637 258.18961466 -31.12654931 257.29862572 -31.12604749 256.38063711 C-30.46874993 252.00100638 -28.38954051 249.43840474 -25.125 246.5625 C-20.80150979 244.4007549 -17.50941524 244.26915813 -12.75 244.875 C-9.89798608 245.86255988 -7.44389156 247.30386933 -4.875 248.875 C-4.12089844 249.31432861 -3.36679687 249.75365723 -2.58984375 250.20629883 C0.0354485 251.74302346 2.64221086 253.30877263 5.25 254.875 C7.33507874 256.10952449 9.42106193 257.34252231 11.5078125 258.57421875 C14.91563585 260.58819407 18.32223331 262.60409497 21.72290039 264.63012695 C29.63171965 269.34089416 37.5811726 273.97523536 45.5625 278.5625 C47.69673128 279.79276634 49.83084719 281.02323282 51.96484375 282.25390625 C55.12661043 284.07711477 58.28972462 285.89773175 61.45751953 287.71044922 C64.51884588 289.46428992 67.57256529 291.23074145 70.625 293 C71.54063721 293.52037842 72.45627441 294.04075684 73.3996582 294.5769043 C78.60851234 297.61403715 82.48029829 300.33559658 85.25 305.875 C85.34430554 307.57204675 85.37464774 309.27280812 85.37457275 310.97247314 C85.37713577 312.05197739 85.37969879 313.13148163 85.38233948 314.24369812 C85.38023972 315.43332657 85.37813995 316.62295502 85.37597656 317.84863281 C85.3778447 319.09749771 85.37971283 320.34636261 85.38163757 321.6330719 C85.38564982 324.35317832 85.38799075 327.07323793 85.38809967 329.79334259 C85.38923917 334.09662201 85.40207187 338.39981546 85.41766357 342.70306396 C85.42023643 343.42914675 85.42280928 344.15522954 85.4254601 344.90331483 C85.43072686 346.38827013 85.43601234 347.87322536 85.44131613 349.35818052 C85.47642877 359.37796031 85.50297946 369.39763406 85.50048828 379.41748047 C85.49889874 386.17396851 85.51495857 392.93016416 85.55119491 399.68655849 C85.56964423 403.2616813 85.57900752 406.83631603 85.56671906 410.41147614 C85.55313474 414.4025185 85.57823425 418.39281244 85.60644531 422.38378906 C85.59624863 423.56532059 85.58605194 424.74685211 85.57554626 425.96418762 C85.57786619 432.74071357 85.57786619 432.74071357 88.60272217 438.59320068 C92.72535218 442.14666766 96.28685411 442.02773796 101.47192383 442.03613281 C102.20399551 442.04109772 102.9360672 442.04606262 103.69032288 442.05117798 C106.11256857 442.06578433 108.53474875 442.07259935 110.95703125 442.078125 C112.64230857 442.0838781 114.32758587 442.08963581 116.01286316 442.09539795 C119.54772242 442.10590386 123.08255896 442.11174908 126.61743164 442.11523438 C131.14013301 442.12071558 135.66253279 442.14473722 140.18513966 442.17320633 C143.6673418 442.19185942 147.14947171 442.19703975 150.63171959 442.19857025 C152.29863825 442.20159173 153.96555579 442.2096032 155.63242531 442.22275543 C157.96847889 442.23987071 160.30380119 442.23792253 162.63989258 442.23144531 C163.32426392 442.2406601 164.00863525 442.24987488 164.71374512 442.2593689 C169.28722725 442.21978095 172.46200793 441.46291952 176.25 438.875 C179.14484718 434.26204802 179.68059037 430.30436241 179.63095093 424.98071289 C179.63797089 423.81556074 179.63797089 423.81556074 179.64513266 422.62687016 C179.65706352 420.03362327 179.64763306 417.44090671 179.63818359 414.84765625 C179.64225015 412.98460584 179.6475925 411.12155784 179.65411377 409.2585144 C179.66778319 404.20484878 179.66249022 399.15136702 179.65297651 394.09769821 C179.64537802 388.807396 179.65242606 383.51710947 179.65713501 378.22680664 C179.662592 369.34290747 179.65540241 360.45908312 179.64111328 351.57519531 C179.6247869 341.30615142 179.63007545 331.03728622 179.6465925 320.76824665 C179.66020895 311.94940569 179.66212623 303.13061851 179.65427649 294.31177044 C179.64960087 289.0455552 179.64897213 283.77942394 179.65888596 278.51321411 C179.66755562 273.56211106 179.66153361 268.61123826 179.64420319 263.66016006 C179.64023836 261.84371447 179.64137232 260.02724948 179.64799118 258.21081161 C179.65619695 255.73004234 179.6458971 253.25000954 179.63095093 250.76928711 C179.64098918 249.6927215 179.64098918 249.6927215 179.65123022 248.59440708 C179.59720111 243.96660304 178.69225154 240.80306441 176.25 236.875 C173.70958743 234.80600902 173.70958743 234.80600902 170.6328125 233.16796875 C169.79259048 232.6844268 169.79259048 232.6844268 168.93539429 232.19111633 C167.08998648 231.13334565 165.23280143 230.09832198 163.375 229.0625 C162.06608805 228.31680289 160.75816063 227.56937529 159.45117188 226.8203125 C156.73586096 225.26589179 154.01647027 223.7189941 151.29394531 222.17724609 C145.67270429 218.98659897 140.10461607 215.70633408 134.53549194 212.4258728 C131.53018114 210.65706091 128.52067301 208.8954166 125.51171875 207.1328125 C121.25173389 204.63608744 116.99298914 202.13726333 112.73554993 199.63619995 C97.34616525 190.59565552 81.92255034 181.61844462 66.45166016 172.71777344 C61.04856392 169.60792363 55.64950482 166.49107978 50.25 163.375 C48.0833523 162.12496713 45.91668564 160.87496711 43.75 159.625 C37.25 155.875 37.25 155.875 30.75 152.125 C29.67645264 151.50568604 28.60290527 150.88637207 27.49682617 150.24829102 C25.34059787 149.00423208 23.18450951 147.75993058 21.02856445 146.51538086 C15.45334492 143.29743212 9.87542023 140.08429188 4.29296875 136.87890625 C-15.49366546 125.51140319 -15.49366546 125.51140319 -22.6875 121.1875 C-23.62464844 120.62675781 -24.56179688 120.06601562 -25.52734375 119.48828125 C-28.5254231 117.31217093 -30.49808279 115.35832779 -31.13311005 111.61918831 C-31.13683876 110.78999319 -31.14056747 109.96079807 -31.14440918 109.10647583 C-31.15575897 108.15043457 -31.16710876 107.19439331 -31.17880249 106.2093811 C-31.17587189 105.16720428 -31.17294128 104.12502747 -31.16992188 103.05126953 C-31.17839142 101.94841614 -31.18686096 100.84556274 -31.19558716 99.70928955 C-31.21901187 96.05868031 -31.21997792 92.40849125 -31.21875 88.7578125 C-31.22584862 86.22199331 -31.23354718 83.68617573 -31.24182129 81.15036011 C-31.255279 75.83244742 -31.25701013 70.51469016 -31.25097656 65.19677734 C-31.24433869 59.05722581 -31.26719007 52.91827551 -31.30429029 46.77884591 C-31.33872592 40.86495729 -31.34532095 34.95125357 -31.34120178 29.03725815 C-31.34289587 26.52463872 -31.35256593 24.01201159 -31.37034607 21.4994545 C-31.39247728 17.9849912 -31.38286137 14.47197782 -31.36523438 10.95751953 C-31.37849762 9.91939117 -31.39176086 8.88126282 -31.40542603 7.81167603 C-31.35257654 3.27735153 -31.30203495 -0.07824773 -28.4185791 -3.72390747 C-18.95960861 -12.23475257 -9.05396973 -5.50221299 0 0 Z " fill="#046A7F" transform="translate(939.75,489.125)"/>
<path d="M0 0 C1.07504079 -0.00644889 2.15008158 -0.01289778 3.25769937 -0.0195421 C5.02047249 -0.01489629 5.02047249 -0.01489629 6.81885719 -0.01015663 C8.07184093 -0.01468774 9.32482467 -0.01921886 10.61577761 -0.02388728 C14.09127624 -0.03612032 17.56667864 -0.03585647 21.04219389 -0.03349853 C24.79143794 -0.03309044 28.54065109 -0.04412868 32.28988075 -0.05361366 C39.63424924 -0.07022597 46.97858563 -0.0757233 54.32297133 -0.07683842 C60.29247684 -0.07778872 66.26197176 -0.08189813 72.23147392 -0.08823967 C89.15510014 -0.10585222 106.07870098 -0.11507845 123.00233643 -0.11357872 C123.91467799 -0.11349881 124.82701955 -0.1134189 125.76700783 -0.11333656 C127.13719041 -0.11321392 127.13719041 -0.11321392 128.53505345 -0.1130888 C143.34162917 -0.11227576 158.14810319 -0.13141806 172.95464949 -0.1596133 C188.15690567 -0.18833373 203.35911224 -0.20215408 218.56139624 -0.20042574 C227.09675746 -0.19976158 235.63201206 -0.2052654 244.16734886 -0.22678185 C251.43393443 -0.24498253 258.70036503 -0.24935013 265.96696351 -0.235763 C269.67421178 -0.22922784 273.38116265 -0.22913559 277.08838272 -0.2464695 C281.10806016 -0.26507105 285.12704747 -0.25266028 289.14673805 -0.23720741 C290.90281901 -0.2526381 290.90281901 -0.2526381 292.69437635 -0.26838052 C299.1842907 -0.21312365 303.41847039 0.20956295 308.60978127 4.25726891 C310.55993646 6.98291981 310.86274128 9.1857679 310.88393593 12.49429893 C310.89391106 13.33254204 310.90388618 14.17078514 310.91416359 15.03442955 C310.91482826 15.94569603 310.91549294 16.85696251 310.91617775 17.79584312 C310.92450127 18.76214653 310.93282478 19.72844994 310.94140053 20.72403526 C310.96550621 23.9200499 310.97427315 27.11586049 310.98087502 30.31195641 C310.98984049 32.53389103 310.99896232 34.75582504 311.00823402 36.97775841 C311.02472783 41.63653595 311.03242494 46.29524159 311.03531837 50.95404625 C311.04070429 56.92184872 311.07839199 62.88897501 311.12406254 68.85658646 C311.15381279 73.446269 311.16104149 78.03578826 311.16204453 82.62555885 C311.16625039 84.82558987 311.17869924 87.02562121 311.19956207 89.22555733 C311.22643496 92.30417869 311.22166275 95.38122664 311.2091465 98.45990562 C311.22398079 99.36712364 311.23881508 100.27434166 311.25409889 101.20905113 C311.20409407 105.53102522 310.96675102 108.37561982 308.19732094 111.80710411 C304.12293277 115.66517924 301.15522059 115.40768552 295.78287697 115.41498375 C294.57035507 115.42260483 294.57035507 115.42260483 293.33333778 115.43037987 C291.57417643 115.44109516 289.81500135 115.44971078 288.05582047 115.4564991 C285.26865566 115.46827786 282.48164652 115.48772983 279.69454384 115.50961876 C271.76863755 115.5712566 263.84274542 115.62521588 255.91666603 115.65863609 C251.0707413 115.6796204 246.22509742 115.71495861 241.3793335 115.75939369 C239.53466227 115.7735293 237.68994131 115.78227061 235.84521866 115.78544807 C233.2577347 115.79037498 230.67099093 115.81357993 228.08365822 115.840765 C227.3265052 115.83775887 226.56935219 115.83475273 225.78925514 115.8316555 C220.70085587 115.91076393 217.04097487 116.66276549 212.60978127 119.25726891 C208.92437614 124.63022959 209.19254124 129.78301051 209.24178028 136.04920673 C209.23842795 137.14303365 209.23507563 138.23686057 209.23162171 139.36383376 C209.22398873 143.04882152 209.23782454 146.7334203 209.2514286 150.41838646 C209.25028671 153.07908251 209.2479452 155.73975262 209.24411517 158.40044361 C209.2381555 164.19547491 209.24325022 169.9904146 209.25553894 175.78543472 C209.27372302 184.40278802 209.27462915 193.02008192 209.27170712 201.63745087 C209.26716029 216.13466977 209.27569732 230.63185224 209.29078674 245.12906265 C209.31202738 265.83772007 209.30808128 286.54633113 209.29890292 307.25499449 C209.29533144 315.56319445 209.29257471 323.87139474 209.28982449 332.17959499 C209.28951526 333.10264617 209.28920604 334.02569734 209.28888744 334.97671976 C209.28168074 356.95085187 209.28250747 378.92498181 209.28580666 400.89911461 C209.28594503 401.86067551 209.2860834 402.82223642 209.28622596 403.81293554 C209.28952315 426.25157706 209.29666998 448.69021332 209.31046486 471.12885094 C209.31105548 472.0941439 209.31164611 473.05943686 209.31225463 474.05398112 C209.31523912 478.92149555 209.31825119 483.78900996 209.32126514 488.65652437 C209.32185971 489.61852974 209.32245429 490.58053512 209.32306688 491.57169217 C209.32426808 493.51341363 209.32547378 495.45513509 209.32668401 497.39685654 C209.34654342 529.46165507 209.34610877 561.5264034 209.32325908 593.59120078 C209.3200622 598.11725535 209.31714114 602.64331005 209.31441116 607.16936493 C209.31387205 608.06014603 209.31333294 608.95092712 209.31277749 609.86870159 C209.3047782 624.21807468 209.31895882 638.5673451 209.34193251 652.91669858 C209.36466506 667.33095738 209.36631244 681.74508999 209.34608015 696.15935379 C209.33474828 704.72748156 209.34033245 713.29521762 209.36981499 721.86330416 C209.38786894 727.5833006 209.38428317 733.30301659 209.3629801 739.02300122 C209.35146604 742.28441283 209.35282309 745.54491161 209.37399884 748.80629724 C209.39534969 752.31805868 209.38003402 755.82779526 209.35530567 759.33948994 C209.37032095 760.35418857 209.38533623 761.36888719 209.40080652 762.41433427 C209.31095281 768.37609422 208.34446554 771.66141373 204.18904017 776.01219082 C200.21298392 779.1468893 195.27087232 778.41970645 190.4759922 778.43427086 C189.07305664 778.44412766 189.07305664 778.44412766 187.64177895 778.45418358 C184.54257058 778.47391477 181.44341068 778.48557895 178.34415627 778.49555016 C176.75615086 778.50166345 176.75615086 778.50166345 175.13606453 778.50790024 C169.5324161 778.52876043 163.92879216 778.54306226 158.3251133 778.55243492 C152.54021959 778.56349784 146.75571069 778.59789683 140.97095299 778.63760662 C136.52021512 778.66376473 132.06956904 778.67212607 127.61876106 778.6757164 C125.48654774 778.68058459 123.35433858 778.69220515 121.22220039 778.71075439 C118.23487381 778.73512767 115.24854424 778.73418389 112.26114845 778.72723961 C111.38400688 778.74004967 110.50686531 778.75285973 109.60314369 778.76605797 C103.79498094 778.71696146 100.3272543 777.7240051 95.60978127 774.25726891 C93.75062093 771.3252177 93.35956067 769.08034283 93.35842425 765.63918275 C93.35068525 764.24370833 93.35068525 764.24370833 93.34278992 762.82004252 C93.34729714 761.79935304 93.35180437 760.77866357 93.35644817 759.72704411 C93.3533509 758.63721325 93.35025363 757.5473824 93.3470625 756.42452636 C93.33904681 752.74117284 93.34536378 749.05797947 93.35149574 745.37462425 C93.34864337 742.7197842 93.34499427 740.06495624 93.34035724 737.41011983 C93.33183995 731.62169959 93.33071424 725.83331427 93.33436966 720.04488945 C93.33975237 711.43730027 93.33367411 702.82974627 93.32508087 694.22216104 C93.31089064 679.74214995 93.30556586 665.26214862 93.30482101 650.7821312 C93.30364364 631.00834785 93.28845476 611.2345924 93.26932584 591.46081916 C93.26042564 582.25310648 93.25215652 573.04539323 93.24400425 563.83767986 C93.2431865 562.91584772 93.24236874 561.99401557 93.24152621 561.04424911 C93.22218025 539.09401808 93.20864465 517.14378423 93.19645119 495.1935482 C93.19591439 494.23291637 93.1953776 493.27228453 93.19482454 492.28254264 C93.1823283 469.8679298 93.17154823 447.45331661 93.16275978 425.03870201 C93.1596898 417.26316896 93.15659747 409.48763592 93.15348244 401.71210289 C93.15310062 400.75243843 93.15271881 399.79277397 93.15232543 398.80402877 C93.14356445 376.89842729 93.13241178 354.99283172 93.11235142 333.08723736 C93.11150875 332.16679937 93.11066609 331.24636138 93.10979789 330.29803132 C93.10131532 321.10943932 93.09232047 311.92084794 93.08260612 302.73225715 C93.07784441 298.2117942 93.07322895 293.69133112 93.06871796 289.17086792 C93.06738614 287.8363315 93.06738614 287.8363315 93.06602741 286.47483475 C93.0520838 272.14212511 93.04945699 257.80943439 93.05139761 243.47671898 C93.05319076 229.07792243 93.04456398 214.67916403 93.02508921 200.28038021 C93.01386463 191.72126433 93.01110489 183.1622408 93.02028556 174.60312198 C93.02560361 168.88905199 93.02012475 163.17505885 93.00580882 157.46100447 C92.99796368 154.20314416 92.99654805 150.94550763 93.00502808 147.68764331 C93.01343722 144.17991849 93.00354391 140.67271056 92.9889555 137.16501713 C92.99580389 136.15135115 93.00265228 135.13768517 93.0097082 134.09330204 C92.96314609 128.39474172 92.45086184 124.2514732 89.60978127 119.25726891 C84.33898124 116.02213299 79.61204062 115.83528102 73.54093361 115.90424156 C72.66036797 115.90208138 71.77980232 115.89992119 70.87255287 115.89769554 C68.97159087 115.89462097 67.07060879 115.89817758 65.1696682 115.90770912 C62.15987368 115.9214956 59.15073485 115.91498261 56.14093971 115.90286827 C47.58786552 115.87196558 39.03494693 115.87682267 30.48185158 115.89691734 C25.24109974 115.90782853 20.00084341 115.89466305 14.76016045 115.86702156 C12.765878 115.86158059 10.771546 115.86564594 8.7773037 115.87941933 C5.99093092 115.89844883 3.20618425 115.88708196 0.41983986 115.86908531 C-0.40210365 115.88242409 -1.22404716 115.89576286 -2.07089806 115.90950584 C-6.40600968 115.84723498 -7.9087449 115.65618189 -11.3783474 112.78153038 C-12.04226494 111.94852409 -12.70618248 111.11551781 -13.39021873 110.25726891 C-13.72021873 109.92726891 -14.05021873 109.59726891 -14.39021873 109.25726891 C-14.50692414 106.11787541 -14.55825964 103.00020283 -14.56722069 99.85980797 C-14.57379189 98.87282921 -14.58036308 97.88585045 -14.58713341 96.86896324 C-14.60692188 93.58693946 -14.61854183 90.30496156 -14.62849998 87.02289391 C-14.63257551 85.90473038 -14.63665104 84.78656685 -14.64085007 83.63451958 C-14.66173532 77.71547694 -14.67602592 71.79645765 -14.68538475 65.87738609 C-14.69644931 59.7559465 -14.73084306 53.63487041 -14.77055645 47.51355934 C-14.7966765 42.81412635 -14.80507254 38.1147805 -14.80866623 33.4152813 C-14.81354477 31.1586086 -14.82519455 28.90194012 -14.84370422 26.64533806 C-14.86799521 23.48736708 -14.86714863 20.33034335 -14.86018944 17.17230797 C-14.8729995 16.23808006 -14.88580956 15.30385216 -14.8990078 14.34131432 C-14.86618756 10.25913373 -14.73483406 7.85837099 -12.67334557 4.26257896 C-8.764387 0.82927258 -5.12302802 0.00778679 0 0 Z M97.17228127 26.19476891 C96.34397804 26.51848473 95.51567482 26.84220055 94.6622715 27.17572594 C89.93612477 29.09436916 85.66761018 31.2917348 81.41422462 34.11102867 C79.60978127 35.25726891 79.60978127 35.25726891 77.52506447 36.29926109 C73.10127975 38.5119993 69.40424607 42.12196339 65.60978127 45.25726891 C64.90079689 45.82832359 64.19181252 46.39937828 63.46134377 46.98773766 C48.58498724 59.36510148 39.19467555 77.16389839 35.80900002 96.04242516 C35.41064358 98.29694608 35.41064358 98.29694608 36.60978127 100.25726891 C37.26978127 100.25726891 37.92978127 100.25726891 38.60978127 100.25726891 C39.95508116 98.69780692 41.23481128 97.08163436 42.48478127 95.44476891 C55.37340378 79.43163184 72.99177912 66.03723597 93.60978127 62.25726891 C103.73693474 61.44056298 111.90312697 64.5171474 119.93009377 70.69086266 C127.36416282 77.81066348 132.5389168 87.49630687 135.60978127 97.25726891 C135.87268912 98.08785883 135.87268912 98.08785883 136.14090824 98.93522835 C136.78867467 102.14321826 136.75186551 105.22293046 136.76799965 108.49585533 C136.77540661 109.59129036 136.77540661 109.59129036 136.78296322 110.70885539 C136.79832324 113.15630606 136.80669478 115.60373053 136.81510353 118.05121422 C136.82468323 119.80547885 136.83469337 121.55974118 136.84510231 123.31400108 C136.87214748 128.07806036 136.89315917 132.84212953 136.9131043 137.60622311 C136.93496621 142.58438549 136.9623539 147.56251736 136.98916054 152.54065514 C137.03908462 161.96823573 137.08402452 171.39583326 137.1271829 180.82344699 C137.17655769 191.55612473 137.23147493 202.28877187 137.28686249 213.02142 C137.40067818 235.10000778 137.50751814 257.17862479 137.60978127 279.25726891 C136.18085548 279.44869469 136.18085548 279.44869469 134.72306252 279.64398766 C131.56458081 279.96588301 131.56458081 279.96588301 129.79728127 282.06976891 C127.4012466 286.48351696 127.46594385 290.76477346 127.4783535 295.69525433 C127.47527455 296.82855362 127.47527455 296.82855362 127.4721334 297.98474786 C127.46645332 300.53087075 127.46792189 303.07693972 127.46933937 305.62306786 C127.46675632 307.46119283 127.46374333 309.29931723 127.46033597 311.13744086 C127.45225579 316.1999939 127.45047583 321.26253276 127.4497385 326.32509148 C127.44788974 331.78056096 127.44034335 337.23602305 127.43360329 342.69148827 C127.42001267 354.62522411 127.41399424 366.55895661 127.40959263 378.49269891 C127.40683169 385.94092776 127.40259464 393.3891553 127.39808846 400.83738327 C127.38589532 421.4504701 127.37559578 442.06355588 127.37221336 462.67664623 C127.3719938 463.99629943 127.37177423 465.31595263 127.37154801 466.67559532 C127.37132737 468.01180359 127.37110689 469.34801186 127.37088656 470.68422014 C127.37044401 473.36490111 127.3699969 476.04558208 127.36954689 478.72626305 C127.3694375 479.39091603 127.36932811 480.05556901 127.3692154 480.74036299 C127.36558397 502.29652484 127.34966039 523.85265308 127.32635653 545.40880206 C127.30176601 568.19674646 127.28804763 590.98467439 127.28684545 613.77263278 C127.2859278 626.19578655 127.28015301 638.6188963 127.26202583 651.04203796 C127.24664725 661.61888781 127.24149115 672.19568004 127.24976394 682.77253894 C127.25367826 688.17081268 127.25270268 693.56897029 127.23870659 698.96722984 C127.22601476 703.90751701 127.22712356 708.84760024 127.2392973 713.78788694 C127.24126249 715.5765765 127.23813814 717.36528028 127.22945294 719.15394983 C127.21840141 721.58346835 127.22581954 724.01226189 127.23784447 726.44176006 C127.22645168 727.48576844 127.22645168 727.48576844 127.21482873 728.55086789 C127.26825678 733.54400407 128.31169766 736.9080895 130.60978127 741.25726891 C136.7911026 745.41777365 143.8886152 744.70222638 151.10978127 744.63226891 C152.90608986 744.64967125 152.90608986 744.64967125 154.73868752 744.66742516 C163.65604211 744.728331 163.65604211 744.728331 171.60978127 741.25726891 C174.25211931 736.25468735 175.04451755 732.11276136 174.98730469 726.45014 C174.99166501 725.6911456 174.99602533 724.9321512 175.00051779 724.15015697 C175.01145486 721.61015709 175.00105941 719.07070221 174.99073219 716.53070641 C174.99418937 714.68999008 174.99895433 712.84927583 175.00491393 711.0085659 C175.01744534 705.95273739 175.01124376 700.89707861 175.00195527 695.84124947 C174.99517392 690.38786986 175.00564148 684.93451965 175.01389503 679.48114586 C175.0272443 668.79889849 175.0243493 658.11671431 175.01565711 647.43446445 C175.00888568 638.75381196 175.00796151 630.07317719 175.01122856 621.39252281 C175.01191811 619.54026038 175.01191811 619.54026038 175.01262159 617.6505785 C175.01358075 615.14212735 175.01455339 612.63367621 175.01553936 610.12522507 C175.02385274 587.26694786 175.01522719 564.40869925 174.99951157 541.55042815 C174.9852748 520.68446077 174.98654868 499.81854831 175.00089455 478.95258141 C175.01695916 455.5083453 175.02327275 432.06413542 175.01405776 408.61989403 C175.01310209 406.12060102 175.01215898 403.62130801 175.01122856 401.122015 C175.01076573 399.89227172 175.01030291 398.66252844 175.00982606 397.39552021 C175.00723432 388.72394067 175.01161113 380.05238059 175.01866722 371.38080406 C175.02707556 360.81499762 175.02481608 350.24925805 175.00882499 339.68345928 C175.00093334 334.29124648 174.99786596 328.89914523 175.00777245 323.50693321 C175.01670124 318.57230692 175.01181637 313.63789576 174.99583979 308.70328903 C174.9924843 306.91671207 174.99420326 305.13011699 175.00146715 303.34355164 C175.01057786 300.9169079 175.00124521 298.49100291 174.98730469 296.06439781 C174.99432819 295.36924977 175.00135168 294.67410173 175.00858802 293.9578886 C174.95120645 288.96704334 173.91417078 285.60186569 171.60978127 281.25726891 C168.65600628 278.88746877 168.65600628 278.88746877 164.60978127 279.25726891 C164.646958 255.01357147 164.70683372 230.77002187 164.79368401 206.5264492 C164.8334823 195.26956508 164.86587082 184.01275094 164.88077736 172.75580406 C164.89378973 162.94350232 164.92074392 153.13135452 164.96439433 143.31913948 C164.98701833 138.12429653 165.00269137 132.92964352 165.00166512 127.73474693 C165.00091907 122.84272181 165.01884789 117.95111673 165.0509491 113.05920029 C165.05945083 111.26619126 165.06119616 109.47313514 165.05558395 107.68011475 C165.04892649 105.2257714 165.06690497 102.77275774 165.09079933 100.3185482 C165.08303891 99.6142436 165.0752785 98.909939 165.06728292 98.18429184 C165.16815705 92.30395613 166.99390982 87.03082584 171.05697274 82.72284031 C175.15235192 79.18721558 178.61454472 76.99725003 184.05118752 77.02680016 C184.8819883 77.02873375 185.71278908 77.03066734 186.56876564 77.03265953 C187.4279258 77.04490562 188.28708595 77.05715172 189.17228127 77.06976891 C190.03530861 77.07041344 190.89833595 77.07105797 191.78751564 77.07172203 C198.18740403 77.11647649 198.18740403 77.11647649 201.60978127 78.25726891 C202.69914415 81.52535757 202.74882391 84.13405375 202.85978127 87.56976891 C203.23017017 93.22513967 203.23017017 93.22513967 205.98478127 98.00726891 C210.36909781 101.76525452 214.33665468 101.54147032 219.87540627 101.46820641 C223.48092032 101.19006675 225.73451491 100.46901225 228.60978127 98.25726891 C231.37765055 92.51309393 230.88002565 86.39508616 230.84025002 80.16742516 C230.83979179 78.99070747 230.83933357 77.81398979 230.83886147 76.601614 C230.83584397 74.11108963 230.82797274 71.62056706 230.81559181 69.13007164 C230.79749602 65.36445796 230.79508129 61.59909315 230.79532814 57.83344078 C230.78718373 50.97362343 230.71635076 44.11620394 230.60978127 37.25726891 C230.60077797 36.39317406 230.59177467 35.52907921 230.58249855 34.63879967 C230.55264491 32.50829476 230.49050162 30.38248369 230.41056252 28.25336266 C230.37744972 27.16080162 230.34433693 26.06824059 230.31022072 24.94257164 C229.36912015 21.33463676 227.67417713 20.25632094 224.60978127 18.25726891 C219.69490261 16.22352601 214.15074234 16.67577416 209.29728127 18.50726891 C206.52596176 20.31184905 205.2789698 21.43691587 203.60978127 24.25726891 C203.2117015 27.57599706 203.17115072 30.8229913 203.11368752 34.16351891 C202.50748871 37.88529763 201.59806955 39.02264063 198.60978127 41.25726891 C190.76129415 44.24414254 181.1058689 42.40210133 173.60978127 39.25726891 C169.05266459 36.54239089 167.06079444 33.26737099 165.60978127 28.25726891 C165.01101552 25.35067756 164.49491056 22.44748736 164.03946877 19.51508141 C163.83657684 17.29658398 163.83657684 17.29658398 162.60978127 16.25726891 C158.36648127 15.99890179 154.10998198 16.07201294 149.85978127 16.06976891 C148.68544533 16.05752281 147.51110939 16.04527672 146.30118752 16.03265953 C129.06891364 16.00422344 113.12058284 19.91188192 97.17228127 26.19476891 Z " fill="#107D94" transform="translate(535.3902187347412,269.74273109436035)"/>
<path d="M0 0 C1.26185641 -0.00623996 2.52371282 -0.01247993 3.8238073 -0.01890898 C7.32415793 -0.03561486 10.82407262 -0.02735054 14.32442486 -0.0149641 C18.10024993 -0.00592086 21.87599957 -0.01987977 25.65180969 -0.03088379 C33.04802711 -0.04868193 40.44408228 -0.04482315 47.8403061 -0.03323323 C53.85130509 -0.02420357 59.86225858 -0.02297287 65.87326241 -0.02732849 C66.72843924 -0.02794142 67.58361608 -0.02855436 68.46470736 -0.02918586 C70.20193832 -0.03046475 71.93916926 -0.0317616 73.67640019 -0.03307623 C89.97159605 -0.04448599 106.26670194 -0.03136247 122.56188304 -0.00987476 C136.54504901 0.00799339 150.52808216 0.00489523 164.51124573 -0.0135498 C180.74615433 -0.03495504 196.98098403 -0.04338395 213.21590477 -0.03110075 C214.94708859 -0.02982655 216.67827241 -0.02856906 218.40945625 -0.02732849 C219.26124711 -0.02671139 220.11303798 -0.02609429 220.99064068 -0.02545848 C226.99417072 -0.0220043 232.99765073 -0.02783546 239.00117302 -0.0372467 C246.31794259 -0.04846436 253.63454052 -0.04543175 260.95129042 -0.02412373 C264.68473082 -0.01360958 268.41788502 -0.0094974 272.15132332 -0.02272034 C276.19764842 -0.03683468 280.2432506 -0.01998451 284.28955078 0 C286.06167385 -0.01338433 286.06167385 -0.01338433 287.86959738 -0.02703905 C293.89889985 0.03091315 298.16166691 0.08969287 302.70826721 4.50793457 C306.27433199 9.58163314 306.13494531 14.40637911 306.09594727 20.37634277 C306.10402557 21.86001201 306.10402557 21.86001201 306.11226708 23.37365437 C306.12656587 26.68546835 306.11943806 29.99688373 306.11231995 33.30871582 C306.11802245 35.68407513 306.12498624 38.0594317 306.13311768 40.43478394 C306.14921125 46.21525356 306.15114734 51.99559833 306.14590477 57.77608562 C306.14186091 62.4746058 306.14330919 67.17309389 306.14865303 71.87161255 C306.14940145 72.54070469 306.15014987 73.20979684 306.15092098 73.8991645 C306.15245247 75.25847491 306.15399082 76.61778532 306.15553594 77.97709572 C306.16925802 90.71895226 306.16382509 103.46074737 306.15235073 116.20260251 C306.14241589 127.85737592 306.15536379 139.51199064 306.17928492 151.16673958 C306.203671 163.13832641 306.21328519 175.1098393 306.2066322 187.08145046 C306.20313922 193.80085809 306.20537725 200.52014363 306.22288322 207.23953247 C306.23832135 213.55642675 306.23443132 219.8730173 306.21557808 226.18989944 C306.21188374 228.50946621 306.21502513 230.82905532 306.22546387 233.14860153 C306.23861694 236.31259579 306.22717595 239.47557611 306.20947266 242.63952637 C306.21907766 243.55956609 306.22868267 244.47960581 306.23857874 245.42752552 C306.17481928 250.95760678 305.38611456 254.11256261 301.70826721 258.50793457 C298.838592 261.22125158 296.89910258 261.94148798 292.96607971 261.95324707 C287.60244901 261.77478623 284.08108365 260.17164446 279.58326721 257.38293457 C278.8244928 256.93772461 278.06571838 256.49251465 277.28395081 256.03381348 C275.62641787 255.05897007 273.97440678 254.07469025 272.32740784 253.08215332 C268.67433105 250.88649344 264.98724818 248.75084795 261.30201721 246.60974121 C258.26176352 244.84134365 255.22718709 243.06345109 252.19264221 241.28527832 C245.94303796 237.63329739 239.65920689 234.04292336 233.36863708 230.46224976 C223.98266138 225.11668928 214.60388686 219.75780657 205.27076721 214.32043457 C203.92184387 213.54590942 203.92184387 213.54590942 202.54566956 212.7557373 C191.66390417 206.37484544 191.66390417 206.37484544 189.70826721 200.50793457 C189.60928393 198.09132762 189.56457086 195.70274393 189.56642151 193.28601074 C189.56294708 192.55393906 189.55947266 191.82186737 189.55589294 191.06761169 C189.54854344 189.47816412 189.54319376 187.88870634 189.53960228 186.29924583 C189.53242956 183.78110331 189.51675677 181.26315483 189.4982605 178.74507141 C189.44583057 171.58556791 189.39782373 164.42617083 189.38233948 157.26647949 C189.37224525 152.88616401 189.34288479 148.5063372 189.30101967 144.12621498 C189.2887254 142.45935071 189.28358554 140.79241738 189.2858181 139.12550926 C189.28817717 136.78915841 189.26596114 134.45420378 189.23829651 132.11804199 C189.24489792 131.43367065 189.25149933 130.74929932 189.25830078 130.04418945 C189.16273222 125.11241168 187.9676249 122.1952559 184.70826721 118.50793457 C180.34274861 116.39188803 176.33283694 116.25105987 171.52882385 116.23327637 C170.83693466 116.22816544 170.14504547 116.2230545 169.43218994 116.2177887 C167.16084475 116.20396763 164.88980553 116.20484368 162.61842346 116.20715332 C161.02950937 116.20326242 159.4405963 116.19892694 157.85168457 116.19416809 C154.5272331 116.1867221 151.20288786 116.18698547 147.87843323 116.19226074 C143.630525 116.19805487 139.38305287 116.18111812 135.13521671 116.15791607 C131.85541263 116.14314334 128.57571274 116.1423118 125.29588127 116.1454258 C123.73027622 116.14491442 122.16466506 116.13971124 120.59909248 116.12961388 C118.404813 116.11719675 116.21137241 116.12407159 114.0171051 116.13562012 C112.77167435 116.13499069 111.52624359 116.13436127 110.24307251 116.13371277 C105.24491755 116.66285607 101.33051393 117.8147287 97.79382324 121.50611877 C96.11408848 126.15097745 96.30326331 130.63521044 96.33937073 135.5369873 C96.33560425 136.6497403 96.33183777 137.76249329 96.32795715 138.90896606 C96.32152582 141.32287695 96.32185363 143.73681315 96.32814217 146.15072441 C96.33724441 149.97130659 96.32703792 153.79139719 96.31152344 157.61195374 C96.27647035 167.10055146 96.26909785 176.58910384 96.2716217 186.07775879 C96.27348334 194.09612416 96.25962136 202.11412082 96.22314262 210.13243294 C96.21230436 213.89607384 96.22445605 217.65921146 96.23696899 221.4228363 C96.2280654 223.73172506 96.21799131 226.04060969 96.20655823 228.3494873 C96.22117348 229.91834938 96.22117348 229.91834938 96.23608398 231.51890564 C96.17687165 237.50763283 95.68457116 240.93825822 91.70826721 245.50793457 C88.14765997 248.55988364 84.8179836 249.1694933 80.24732971 248.96105957 C74.88259673 248.00366107 70.36855726 245.2130521 65.70826721 242.50793457 C64.56913879 241.84737061 64.56913879 241.84737061 63.40699768 241.17346191 C58.81457873 238.49611109 54.24190251 235.78661265 49.67701721 233.06262207 C43.79116724 229.55078302 37.87969648 226.08437673 31.95826721 222.63293457 C30.97753235 222.06059082 29.99679749 221.48824707 28.98634338 220.89855957 C23.57771947 217.74662981 18.15851015 214.61382491 12.72779846 211.50012207 C11.55493858 210.82679672 10.38208696 210.15345698 9.20924377 209.48010254 C6.98235355 208.20285039 4.75393238 206.92826226 2.5236969 205.65686035 C-18.20527044 193.76732162 -18.20527044 193.76732162 -20.29173279 187.50793457 C-20.3906663 185.14798134 -20.42678389 182.78526819 -20.43217468 180.42324829 C-20.4351458 179.69734053 -20.43811693 178.97143276 -20.44117808 178.22352779 C-20.44986823 175.78462704 -20.45137359 173.34577536 -20.4528656 170.90686035 C-20.45749351 169.16085709 -20.46251813 167.41485483 -20.46791077 165.66885376 C-20.48103837 160.92091361 -20.48748029 156.1729876 -20.49192142 151.42503214 C-20.49485123 148.45988556 -20.49895583 145.49474286 -20.5034256 142.52959824 C-20.51710073 133.25566441 -20.52676763 123.98173943 -20.53062749 114.70779622 C-20.53511012 103.9959647 -20.55266746 93.28426067 -20.58162808 82.57246792 C-20.60322828 74.29638663 -20.61333086 66.02034125 -20.61466861 57.74423206 C-20.61571772 52.79935933 -20.62164816 47.85460644 -20.63948822 42.90976334 C-20.65594045 38.25912828 -20.6581383 33.60870352 -20.64934921 28.95804977 C-20.64857734 27.25083097 -20.65294129 25.54360099 -20.66280746 23.83641052 C-20.67548476 21.50621804 -20.66967364 19.17677513 -20.65922546 16.84658813 C-20.66069202 15.54246035 -20.66215858 14.23833256 -20.66366959 12.89468575 C-20.13917285 8.11876697 -18.40070349 5.82577615 -15.37246609 2.22718048 C-10.44772263 -0.52114085 -5.54596238 -0.0418081 0 0 Z " fill="#017A94" transform="translate(929.2917327880859,269.4920654296875)"/>
<path d="M0 0 C0.33 0 0.66 0 1 0 C1 53.79 1 107.58 1 163 C0.67 163 0.34 163 0 163 C0 109.21 0 55.42 0 0 Z " fill="#00FFFF" transform="translate(698,367)"/>
<path d="M0 0 C0.99 0.495 0.99 0.495 2 1 C1.67 1.66 1.34 2.32 1 3 C0.67 2.01 0.34 1.02 0 0 Z " fill="#0000FF" transform="translate(663,347)"/>
<path d="M0 0 C0.99 0.495 0.99 0.495 2 1 C1.01 1.495 1.01 1.495 0 2 C0 1.34 0 0.68 0 0 Z " fill="#002AD4" transform="translate(574,365)"/>
<path d="M0 0 C0.33 0.66 0.66 1.32 1 2 C0.34 1.67 -0.32 1.34 -1 1 C-0.67 0.67 -0.34 0.34 0 0 Z " fill="#0000FF" transform="translate(606,312)"/>
<path d="M0 0 C2 1 2 1 2 1 Z " fill="#00FFFF" transform="translate(762,365)"/>
<path d="" fill="#00FFFF" transform="translate(0,0)"/>
<path d="" fill="#0000FF" transform="translate(0,0)"/>
<path d="M0 0 C2 1 2 1 2 1 Z " fill="#00FFFF" transform="translate(705,350)"/>
<path d="M0 0 C2 1 2 1 2 1 Z " fill="#0000FF" transform="translate(631,329)"/>
<path d="M0 0 C2 1 2 1 2 1 Z " fill="#0000FF" transform="translate(620,303)"/>
<path d="" fill="#00FFFF" transform="translate(0,0)"/>
<path d="" fill="#00FFFF" transform="translate(0,0)"/>
<path d="" fill="#00FFFF" transform="translate(0,0)"/>
<path d="" fill="#00FFFF" transform="translate(0,0)"/>
<path d="" fill="#0000FF" transform="translate(0,0)"/>
<path d="" fill="#0000FF" transform="translate(0,0)"/>
<path d="" fill="#0000FF" transform="translate(0,0)"/>
<path d="" fill="#00FFFF" transform="translate(0,0)"/>
<path d="" fill="#0000FF" transform="translate(0,0)"/>
<path d="" fill="#0000FF" transform="translate(0,0)"/>
<path d="" fill="#0000FF" transform="translate(0,0)"/>
<path d="" fill="#0000FF" transform="translate(0,0)"/>
<path d="" fill="#00FFFF" transform="translate(0,0)"/>
<path d="" fill="#0000FF" transform="translate(0,0)"/>
<path d="" fill="#0000FF" transform="translate(0,0)"/>
<path d="" fill="#0000FF" transform="translate(0,0)"/>
<path d="" fill="#0000FF" transform="translate(0,0)"/>
<path d="" fill="#00FFFF" transform="translate(0,0)"/>
<path d="" fill="#0000FF" transform="translate(0,0)"/>
<path d="" fill="#0000FF" transform="translate(0,0)"/>
<path d="" fill="#0000FF" transform="translate(0,0)"/>
<path d="" fill="#0000FF" transform="translate(0,0)"/>
<path d="" fill="#0000FF" transform="translate(0,0)"/>
<path d="" fill="#0000FF" transform="translate(0,0)"/>
<path d="" fill="#0000FF" transform="translate(0,0)"/>
<path d="" fill="#0000FF" transform="translate(0,0)"/>
<path d="" fill="#0000FF" transform="translate(0,0)"/>
<path d="" fill="#0000FF" transform="translate(0,0)"/>
<path d="" fill="#0000FF" transform="translate(0,0)"/>
<path d="" fill="#0000FF" transform="translate(0,0)"/>
<path d="" fill="#0000FF" transform="translate(0,0)"/>
<path d="" fill="#0000FF" transform="translate(0,0)"/>
<path d="" fill="#0000FF" transform="translate(0,0)"/>
<path d="" fill="#0000FF" transform="translate(0,0)"/>
<path d="" fill="#0000FF" transform="translate(0,0)"/>
<path d="" fill="#007F7F" transform="translate(0,0)"/>
<path d="" fill="#0000FF" transform="translate(0,0)"/>
<path d="" fill="#0000FF" transform="translate(0,0)"/>
<path d="" fill="#0000FF" transform="translate(0,0)"/>
<path d="" fill="#0000FF" transform="translate(0,0)"/>
<path d="" fill="#0000FF" transform="translate(0,0)"/>
<path d="" fill="#0000FF" transform="translate(0,0)"/>
<path d="" fill="#0000FF" transform="translate(0,0)"/>
<path d="" fill="#0000FF" transform="translate(0,0)"/>
<path d="" fill="#0000FF" transform="translate(0,0)"/>
<path d="" fill="#0000FF" transform="translate(0,0)"/>
<path d="" fill="#0000FF" transform="translate(0,0)"/>
<path d="" fill="#0000FF" transform="translate(0,0)"/>
<path d="" fill="#00FFFF" transform="translate(0,0)"/>
<path d="" fill="#00FFFF" transform="translate(0,0)"/>
<path d="" fill="#007F7F" transform="translate(0,0)"/>
<path d="" fill="#00FFFF" transform="translate(0,0)"/>
<path d="" fill="#00FFFF" transform="translate(0,0)"/>
<path d="" fill="#0000FF" transform="translate(0,0)"/>
<path d="" fill="#00FFFF" transform="translate(0,0)"/>
<path d="" fill="#00FFFF" transform="translate(0,0)"/>
<path d="" fill="#00FFFF" transform="translate(0,0)"/>
<path d="" fill="#0000FF" transform="translate(0,0)"/>
<path d="" fill="#00FFFF" transform="translate(0,0)"/>
<path d="" fill="#00FFFF" transform="translate(0,0)"/>
<path d="" fill="#0000FF" transform="translate(0,0)"/>
<path d="" fill="#00FFFF" transform="translate(0,0)"/>
<path d="" fill="#00FFFF" transform="translate(0,0)"/>
<path d="" fill="#00FFFF" transform="translate(0,0)"/>
<path d="" fill="#0000FF" transform="translate(0,0)"/>
<path d="" fill="#00FFFF" transform="translate(0,0)"/>
</svg>
